<?xml version="1.0" standalone="no"?>
<!DOCTYPE svg PUBLIC "-//W3C//DTD SVG 20010904//EN"
 "http://www.w3.org/TR/2001/REC-SVG-20010904/DTD/svg10.dtd">
<svg version="1.0" xmlns="http://www.w3.org/2000/svg"
 width="1024.000000pt" height="768.000000pt" viewBox="0 0 1024.000000 768.000000"
 preserveAspectRatio="xMidYMid meet">

<g transform="translate(0.000000,768.000000) scale(0.100000,-0.100000)"
fill="#000000" stroke="none">
<path d="M4840 6650 c-369 -48 -606 -118 -911 -270 -291 -144 -506 -302 -751
-552 -347 -353 -590 -789 -693 -1243 -16 -70 -27 -99 -36 -98 -8 1 -42 13 -77
28 -106 44 -192 55 -438 55 l-224 0 0 -566 0 -567 258 6 c175 4 275 11 315 21
183 46 313 163 384 343 24 61 27 82 27 198 1 154 -18 225 -90 332 -24 36 -44
67 -44 69 0 2 10 3 21 1 25 -2 25 -3 64 163 103 433 339 846 669 1175 458 455
1040 719 1688 765 302 22 706 -41 1017 -157 206 -76 472 -221 652 -353 461
-337 845 -906 954 -1415 26 -118 25 -117 102 -113 36 1 67 7 69 13 3 6 -11 71
-29 145 -94 370 -291 752 -545 1056 -221 265 -442 446 -787 645 -460 264
-1074 387 -1595 319z m-2568 -2258 c123 -45 200 -123 239 -244 30 -95 25 -238
-12 -318 -87 -186 -221 -254 -487 -248 l-127 3 -3 419 -2 418 167 -4 c138 -4
178 -9 225 -26z"/>
<path d="M5535 4558 c-3 -7 -4 -258 -3 -558 l3 -545 159 -3 c379 -8 566 41
691 180 89 99 130 225 123 377 -6 113 -31 194 -89 287 -101 159 -264 244 -508
264 -172 14 -371 13 -376 -2z m469 -158 c101 -25 169 -63 230 -125 56 -58 89
-119 105 -193 35 -167 -19 -333 -135 -413 -88 -60 -140 -72 -336 -77 l-178 -4
0 416 0 416 118 0 c86 0 140 -6 196 -20z"/>
<path d="M4150 4296 c-296 -64 -441 -423 -271 -670 90 -130 268 -204 427 -178
73 12 152 47 198 88 l29 26 -34 31 c-66 61 -60 60 -127 26 -113 -59 -218 -47
-301 33 -98 94 -126 242 -67 361 33 68 105 131 169 148 76 20 189 -10 216 -59
8 -15 19 -10 82 33 l72 49 -37 32 c-94 81 -222 110 -356 80z"/>
<path d="M3145 4291 c-55 -14 -159 -72 -203 -114 -24 -23 -60 -75 -80 -116
-36 -73 -37 -78 -37 -185 0 -104 2 -115 32 -179 43 -91 125 -175 210 -217 58
-29 80 -34 163 -38 114 -5 186 12 264 63 109 70 168 164 189 296 35 224 -95
429 -307 485 -54 14 -180 17 -231 5z m232 -153 c50 -23 98 -75 127 -137 31
-67 30 -219 -1 -276 -66 -122 -192 -177 -317 -141 -73 22 -131 73 -168 151
-23 50 -28 73 -28 140 0 125 48 211 148 264 63 34 167 33 239 -1z"/>
<path d="M4670 4010 c0 -206 4 -299 14 -335 40 -153 129 -224 276 -225 84 0
156 27 199 74 34 36 41 33 41 -19 l0 -45 85 0 85 0 0 415 0 415 -80 0 -80 0 0
-277 c0 -272 -1 -279 -24 -329 -27 -58 -62 -87 -125 -104 -57 -15 -140 9 -177
53 -54 65 -57 81 -61 382 l-4 279 -75 1 -74 0 0 -285z"/>
<path d="M6904 4291 c-174 -42 -308 -252 -290 -455 24 -262 310 -440 598 -372
82 19 211 107 194 134 -3 5 -23 21 -45 36 l-40 28 -68 -34 c-62 -30 -75 -33
-163 -33 -78 0 -104 4 -145 23 -59 27 -98 62 -130 117 -48 82 -65 77 243 75
150 0 289 2 308 6 l37 7 -5 96 c-4 76 -10 109 -30 153 -48 104 -143 185 -252
214 -54 15 -161 17 -212 5z m180 -132 c74 -20 166 -132 166 -202 l0 -27 -236
0 -237 0 6 36 c24 145 160 232 301 193z"/>
<path d="M7426 4268 c3 -13 61 -144 127 -293 66 -148 143 -326 172 -395 28
-69 57 -125 63 -124 7 1 45 2 86 3 l73 1 43 98 c47 106 73 162 179 390 93 198
151 328 151 336 0 3 -36 6 -81 6 l-80 0 -60 -127 c-107 -231 -234 -492 -239
-492 -5 -1 -24 41 -151 339 -44 102 -89 206 -101 233 l-21 47 -84 0 c-83 0
-84 0 -77 -22z"/>
<path d="M2546 3413 c57 -243 217 -586 373 -802 321 -443 735 -772 1208 -960
348 -138 712 -199 1113 -188 289 8 469 40 756 135 264 87 516 221 749 397 293
222 585 575 777 942 62 117 168 366 168 394 0 11 -22 22 -74 37 -41 12 -77 22
-79 22 -3 0 -9 -14 -12 -32 -12 -51 -91 -239 -151 -361 -130 -259 -269 -446
-503 -676 -188 -184 -364 -308 -636 -446 -526 -266 -1150 -333 -1731 -184
-271 69 -456 145 -686 282 -523 313 -951 857 -1103 1405 l-18 62 -79 0 -78 0
6 -27z"/>
</g>
</svg>
