<svg width="16" height="16" viewBox="0 0 18 18" fill="none" xmlns="http://www.w3.org/2000/svg">
<path d="M8.03946 8.62433L13.6645 3.31183C13.77 3.21215 13.9132 3.15615 14.0624 3.15615C14.2117 3.15615 14.3549 3.21215 14.4604 3.31183C14.5659 3.41152 14.6252 3.54672 14.6252 3.68769C14.6252 3.82867 14.5659 3.96387 14.4604 4.06355L9.23267 9.00019L14.4604 13.9368C14.5659 14.0365 14.6252 14.1717 14.6252 14.3127C14.6252 14.4537 14.5659 14.5889 14.4604 14.6886C14.3549 14.7882 14.2117 14.8442 14.0624 14.8442C13.9132 14.8442 13.77 14.7882 13.6645 14.6886L8.03946 9.37605C7.98716 9.32671 7.94567 9.26812 7.91737 9.20363C7.88906 9.13914 7.87449 9.07001 7.87449 9.00019C7.87449 8.93038 7.88906 8.86125 7.91737 8.79676C7.94567 8.73226 7.98716 8.67367 8.03946 8.62433ZM2.41446 9.37605L8.03946 14.6886C8.14501 14.7882 8.28816 14.8442 8.43743 14.8442C8.5867 14.8442 8.72985 14.7882 8.8354 14.6886C8.94095 14.5889 9.00024 14.4537 9.00024 14.3127C9.00024 14.1717 8.94095 14.0365 8.8354 13.9368L3.60766 9.00019L8.8354 4.06355C8.94095 3.96387 9.00024 3.82867 9.00024 3.68769C9.00024 3.54672 8.94095 3.41152 8.8354 3.31183C8.72985 3.21215 8.5867 3.15615 8.43743 3.15615C8.28816 3.15615 8.14501 3.21215 8.03946 3.31183L2.41446 8.62433C2.36216 8.67367 2.32067 8.73226 2.29236 8.79676C2.26406 8.86125 2.24949 8.93038 2.24949 9.00019C2.24949 9.07001 2.26406 9.13914 2.29236 9.20363C2.32067 9.26812 2.36216 9.32671 2.41446 9.37605Z" fill="#353E5D"/>
</svg>
