<svg width="21" height="21" viewBox="0 0 21 21" fill="none" xmlns="http://www.w3.org/2000/svg">
<path d="M17.5269 8.3393L10.9644 14.9018C10.9035 14.9628 10.8311 15.0112 10.7514 15.0442C10.6718 15.0773 10.5864 15.0943 10.5001 15.0943C10.4139 15.0943 10.3285 15.0773 10.2488 15.0442C10.1691 15.0112 10.0968 14.9628 10.0358 14.9018L3.47332 8.3393C3.35018 8.21616 3.28101 8.04914 3.28101 7.875C3.28101 7.70085 3.35018 7.53384 3.47332 7.4107C3.59646 7.28756 3.76348 7.21838 3.93762 7.21838C4.11177 7.21838 4.27878 7.28756 4.40192 7.4107L10.5001 13.5097L16.5983 7.4107C16.6593 7.34973 16.7317 7.30136 16.8113 7.26837C16.891 7.23537 16.9764 7.21838 17.0626 7.21838C17.1488 7.21838 17.2342 7.23537 17.3139 7.26837C17.3936 7.30136 17.4659 7.34973 17.5269 7.4107C17.5879 7.47167 17.6363 7.54406 17.6693 7.62372C17.7023 7.70339 17.7192 7.78877 17.7192 7.875C17.7192 7.96123 17.7023 8.04661 17.6693 8.12627C17.6363 8.20594 17.5879 8.27832 17.5269 8.3393Z" fill="#343330"/>
</svg>
