<svg width="16" height="16" viewBox="0 0 20 20" fill="none" xmlns="http://www.w3.org/2000/svg">
<path d="M14.1923 10.442L7.94229 16.692C7.88422 16.7501 7.81528 16.7961 7.73941 16.8275C7.66354 16.859 7.58223 16.8751 7.5001 16.8751C7.41798 16.8751 7.33666 16.859 7.26079 16.8275C7.18492 16.7961 7.11598 16.7501 7.05792 16.692C6.99985 16.6339 6.95378 16.565 6.92236 16.4891C6.89093 16.4132 6.87476 16.3319 6.87476 16.2498C6.87476 16.1677 6.89093 16.0864 6.92236 16.0105C6.95378 15.9346 6.99985 15.8657 7.05792 15.8076L12.8665 9.9998L7.05792 4.19199C6.94064 4.07471 6.87476 3.91565 6.87476 3.7498C6.87476 3.58395 6.94064 3.42489 7.05792 3.30761C7.17519 3.19034 7.33425 3.12445 7.5001 3.12445C7.66596 3.12445 7.82502 3.19034 7.94229 3.30761L14.1923 9.55761C14.2504 9.61566 14.2965 9.68459 14.328 9.76046C14.3594 9.83633 14.3756 9.91766 14.3756 9.9998C14.3756 10.0819 14.3594 10.1633 14.328 10.2391C14.2965 10.315 14.2504 10.3839 14.1923 10.442Z" fill="#353E5D"/>
</svg>
