<svg width="33" height="33" viewBox="0 0 33 33" fill="none" xmlns="http://www.w3.org/2000/svg">
<g opacity="0.46">
<path opacity="0.2" d="M19.5938 4.125V11.3438H26.8135L19.5938 4.125Z" fill="#343330"/>
<path d="M25.7823 28.875H7.21875C6.94525 28.875 6.68294 28.7664 6.48955 28.573C6.29615 28.3796 6.1875 28.1173 6.1875 27.8438V5.15625C6.1875 4.88275 6.29615 4.62044 6.48955 4.42705C6.68294 4.23365 6.94525 4.125 7.21875 4.125H19.5948L26.8135 11.3438V27.8438C26.8135 27.9792 26.7868 28.1133 26.735 28.2384C26.6832 28.3635 26.6072 28.4772 26.5115 28.573C26.4157 28.6687 26.302 28.7447 26.1769 28.7965C26.0518 28.8483 25.9177 28.875 25.7823 28.875Z" stroke="#343330" stroke-width="2.16393" stroke-linecap="round" stroke-linejoin="round"/>
<path d="M19.5938 4.125V11.3438H26.8135" stroke="#343330" stroke-width="2.16393" stroke-linecap="round" stroke-linejoin="round"/>
<path d="M12.8906 19.0781L16.5 15.4688L20.1094 19.0781" stroke="#343330" stroke-width="2.16393" stroke-linecap="round" stroke-linejoin="round"/>
<path d="M16.5 23.7188V15.4688" stroke="#343330" stroke-width="2.16393" stroke-linecap="round" stroke-linejoin="round"/>
</g>
</svg>
