<svg width="34" height="33" viewBox="0 0 34 33" fill="none" xmlns="http://www.w3.org/2000/svg">
<g opacity="0.46">
<path opacity="0.2" d="M20.0938 4.125V11.3438H27.3135L20.0938 4.125Z" fill="#343330"/>
<path d="M26.2823 28.875H7.71875C7.44525 28.875 7.18294 28.7664 6.98955 28.573C6.79615 28.3796 6.6875 28.1173 6.6875 27.8438V5.15625C6.6875 4.88275 6.79615 4.62044 6.98955 4.42705C7.18294 4.23365 7.44525 4.125 7.71875 4.125H20.0948L27.3135 11.3438V27.8438C27.3135 27.9792 27.2868 28.1133 27.235 28.2384C27.1832 28.3635 27.1072 28.4772 27.0115 28.573C26.9157 28.6687 26.802 28.7447 26.6769 28.7965C26.5518 28.8483 26.4177 28.875 26.2823 28.875Z" stroke="#343330" stroke-width="2.16393" stroke-linecap="round" stroke-linejoin="round"/>
<path d="M20.0938 4.125V11.3438H27.3135" stroke="#343330" stroke-width="2.16393" stroke-linecap="round" stroke-linejoin="round"/>
</g>
</svg>
